<?xml version="1.0" encoding="UTF-8"?>

<!DOCTYPE svg PUBLIC "-//W3C//DTD SVG 1.1//EN"
"http://www.w3.org/Graphics/SVG/1.1/DTD/svg11.dtd">	

<svg xmlns="http://www.w3.org/2000/svg" 
	 xmlns:xlink="http://www.w3.org/1999/xlink" width="200" height="200" viewBox="45.0 70.0 345.0 290.0">
       <path d="M90.0 200.0 L90.0 200.0 L90.0 280.0 L130.0 330.0 L141.0 334.0 L190.0 350.0 L290.0 360.0 L370.0 320.0 L390.0 250.0 L388.0 240.0 L380.0 160.0 L377.0 150.0 L340.0 110.0 L339.0 100.0 L300.0 80.0 L291.0 75.0 L180.0 70.0 L170.0 70.0 L130.0 100.0 L130.0 112.0 L130.0 160.0 L131.0 172.0 L140.0 210.0 L110.0 180.0 L104.0 170.0 L80.0 150.0 L45.0 197.0 L55.0 222.0 L70.0 180.0 L90.0 200.0 Z"
             fill="red" fill-opacity="0.5"
             onmouseout="Normal(evt)"
             onmouseover="Destaca(evt)"/>

       <path d="M170.0 150.0 L170.0 150.0 L170.0 260.0 L178.0 266.0 L188.0 273.0 L270.0 290.0 L279.0 285.0 L320.0 240.0 L322.0 228.0 L322.0 218.0 L320.0 206.0 L270.0 130.0 L270.0 119.0 L190.0 120.0 L170.0 150.0 Z"
             fill="blue" fill-opacity="0.5"
             onmouseout="Normal(evt)"
             onmouseover="Destaca(evt)"/>
</svg>